/* XPM */
static char * add_xpm[] = {
"16 16 100 2",
"  	c None",
". 	c #468900",
"+ 	c #448700",
"@ 	c #438700",
"# 	c #498B00",
"$ 	c #488A00",
"% 	c #59960E",
"& 	c #B6D574",
"* 	c #E0F39F",
"= 	c #DAEF92",
"- 	c #CAE579",
"; 	c #B5D65D",
"> 	c #86B52E",
", 	c #529103",
"' 	c #4C8C00",
") 	c #639C19",
"! 	c #F7FFBC",
"~ 	c #C9E45D",
"{ 	c #97C300",
"] 	c #90BF00",
"^ 	c #91C000",
"/ 	c #98C400",
"( 	c #A2CA22",
"_ 	c #97C231",
": 	c #559303",
"< 	c #4C8D00",
"[ 	c #58940A",
"} 	c #E9F8AD",
"| 	c #A7D018",
"1 	c #94C400",
"2 	c #90C200",
"3 	c #FFFFFF",
"4 	c #91C300",
"5 	c #99C700",
"6 	c #9BC805",
"7 	c #87B718",
"8 	c #509000",
"9 	c #468800",
"0 	c #A4C959",
"a 	c #BCDE49",
"b 	c #94C700",
"c 	c #8EC300",
"d 	c #96C800",
"e 	c #9ACB00",
"f 	c #90C106",
"g 	c #68A100",
"h 	c #4B8B00",
"i 	c #C5E076",
"j 	c #98CA00",
"k 	c #90C500",
"l 	c #8EC400",
"m 	c #87C100",
"n 	c #93C700",
"o 	c #99CB00",
"p 	c #76AB00",
"q 	c #4B8C00",
"r 	c #458800",
"s 	c #BEDD66",
"t 	c #A2D010",
"u 	c #97CD00",
"v 	c #78AD00",
"w 	c #4A8B00",
"x 	c #AFD251",
"y 	c #A3D412",
"z 	c #97CF00",
"A 	c #9CC438",
"B 	c #98D100",
"C 	c #92CD00",
"D 	c #8ECB00",
"E 	c #87C700",
"F 	c #93CE00",
"G 	c #9AD000",
"H 	c #458300",
"I 	c #78AB16",
"J 	c #97C911",
"K 	c #9AD400",
"L 	c #97D200",
"M 	c #8ECD00",
"N 	c #9BD500",
"O 	c #8CC100",
"P 	c #69A101",
"Q 	c #478400",
"R 	c #519000",
"S 	c #83B40F",
"T 	c #99D202",
"U 	c #9BD600",
"V 	c #93D100",
"W 	c #76AB01",
"X 	c #437C00",
"Y 	c #529100",
"Z 	c #77AC02",
"` 	c #8CC300",
" .	c #99D600",
"..	c #A8DE18",
"+.	c #539200",
"@.	c #447C00",
"#.	c #468000",
"$.	c #76AA00",
"%.	c #77AB00",
"&.	c #478300",
"                                ",
"          . + @ + . #           ",
"      $ % & * = - ; > , '       ",
"    $ ) ! ~ { ] ^ / ( _ : <     ",
"    [ } | 1 2 3 3 4 5 6 7 8     ",
"  9 0 a b b c 3 3 c d e f g h   ",
"  9 i j k l m 3 3 m l n o p q   ",
"  r s t 3 3 3 3 3 3 3 3 u v w   ",
"  . x y 3 3 3 3 3 3 3 3 z v w   ",
"  $ A B C D E 3 3 E D F G p q   ",
"  H I J K L M 3 3 M L N O P Q   ",
"    R S T U V 3 3 V U B W 8     ",
"    X Y Z `  ..... .` W +.@.    ",
"      #.8 P $.%.%.$.P 8 @.      ",
"          &.q w w q &.          ",
"                                "};
