/* XPM */
static char * binocular_xpm[] = {
"16 16 79 1",
" 	c None",
".	c #010101",
"+	c #777777",
"@	c #0D0D0D",
"#	c #151515",
"$	c #444444",
"%	c #858585",
"&	c #737373",
"*	c #6F6F73",
"=	c #777776",
"-	c #6E6E70",
";	c #7F7F7F",
">	c #5D5D5C",
",	c #53535B",
"'	c #333333",
")	c #707070",
"!	c #636363",
"~	c #525256",
"{	c #7C7C7C",
"]	c #5A5A59",
"^	c #3A3A3A",
"/	c #454545",
"(	c #606060",
"_	c #4F4F53",
":	c #111111",
"<	c #4F4F4F",
"[	c #6A6A6A",
"}	c #444443",
"|	c #7A7A7A",
"1	c #6F6F6E",
"2	c #545454",
"3	c #39393A",
"4	c #0F0F0F",
"5	c #555555",
"6	c #6D6D6D",
"7	c #646464",
"8	c #646468",
"9	c #747474",
"0	c #5E5E5C",
"a	c #4B4B55",
"b	c #757575",
"c	c #636362",
"d	c #494948",
"e	c #484850",
"f	c #717171",
"g	c #5B5B59",
"h	c #414141",
"i	c #484852",
"j	c #0A0A0A",
"k	c #727272",
"l	c #60605F",
"m	c #464645",
"n	c #45454D",
"o	c #6E6E6E",
"p	c #585856",
"q	c #3E3E3E",
"r	c #45454F",
"s	c #080808",
"t	c #6F6F6F",
"u	c #434342",
"v	c #42424A",
"w	c #6C6C6C",
"x	c #616160",
"y	c #57575C",
"z	c #060606",
"A	c #565656",
"B	c #56565A",
"C	c #404040",
"D	c #040404",
"E	c #000000",
"F	c #676767",
"G	c #5C5C5C",
"H	c #4F4F50",
"I	c #535358",
"J	c #020202",
"K	c #686868",
"L	c #5F5F5E",
"M	c #525251",
"N	c #515155",
"   ...    ...   ",
"   .+@    @+.   ",
"  .#$##  ##$#.  ",
"  .%&*####%=-.  ",
"  .;>,'))';!~.  ",
"  .{]^''''/(_.  ",
" .:$''<[[<'}':. ",
" .|12344445678. ",
" .90$a@  @bcde. ",
" .fghij  jklmn. ",
" .opqrs  st>uv. ",
" .wx2yz  zw!AB. ",
" .Cu''D  Dh/''. ",
" EFGHIJ  JKLMNE ",
" EEEEE.  .EEEEE ",
"                "};
