/* XPM */
static char * binocular__plus_xpm[] = {
"16 16 97 2",
"  	c None",
". 	c #010101",
"+ 	c #777777",
"@ 	c #0D0D0D",
"# 	c #151515",
"$ 	c #444444",
"% 	c #858585",
"& 	c #737373",
"* 	c #6F6F73",
"= 	c #777776",
"- 	c #6E6E70",
"; 	c #7F7F7F",
"> 	c #5D5D5C",
", 	c #53535B",
"' 	c #333333",
") 	c #707070",
"! 	c #636363",
"~ 	c #525256",
"{ 	c #7C7C7C",
"] 	c #5A5A59",
"^ 	c #3A3A3A",
"/ 	c #454545",
"( 	c #606060",
"_ 	c #4F4F53",
": 	c #111111",
"< 	c #4F4F4F",
"[ 	c #6A6A6A",
"} 	c #444443",
"| 	c #7A7A7A",
"1 	c #6F6F6E",
"2 	c #545454",
"3 	c #39393A",
"4 	c #0F0F0F",
"5 	c #555555",
"6 	c #6D6D6D",
"7 	c #646464",
"8 	c #646468",
"9 	c #747474",
"0 	c #5E5E5C",
"a 	c #4B4B55",
"b 	c #757575",
"c 	c #636362",
"d 	c #494948",
"e 	c #484850",
"f 	c #717171",
"g 	c #5B5B59",
"h 	c #414141",
"i 	c #484852",
"j 	c #0A0A0A",
"k 	c #727272",
"l 	c #288D34",
"m 	c #0E951F",
"n 	c #1D822D",
"o 	c #6E6E6E",
"p 	c #585856",
"q 	c #3E3E3E",
"r 	c #45454F",
"s 	c #080808",
"t 	c #6F6F6F",
"u 	c #139623",
"v 	c #64EE75",
"w 	c #0D901F",
"x 	c #6C6C6C",
"y 	c #616160",
"z 	c #57575C",
"A 	c #060606",
"B 	c #03620D",
"C 	c #169424",
"D 	c #149222",
"E 	c #55EB66",
"F 	c #128F20",
"G 	c #00840F",
"H 	c #009C12",
"I 	c #404040",
"J 	c #434342",
"K 	c #040404",
"L 	c #017A0E",
"M 	c #41E752",
"N 	c #009510",
"O 	c #000000",
"P 	c #676767",
"Q 	c #5C5C5C",
"R 	c #4F4F50",
"S 	c #535358",
"T 	c #020202",
"U 	c #01570A",
"V 	c #158520",
"W 	c #13831E",
"X 	c #2CE23D",
"Y 	c #11801C",
"Z 	c #00730C",
"` 	c #006A0B",
" .	c #006A0A",
"..	c #1ADF2B",
"+.	c #006906",
"@.	c #006605",
"#.	c #006A06",
"      . . .         . . .       ",
"      . + @         @ + .       ",
"    . # $ # #     # # $ # .     ",
"    . % & * # # # # % = - .     ",
"    . ; > , ' ) ) ' ; ! ~ .     ",
"    . { ] ^ ' ' ' ' / ( _ .     ",
"  . : $ ' ' < [ [ < ' } ' : .   ",
"  . | 1 2 3 4 4 4 4 5 6 7 8 .   ",
"  . 9 0 $ a @     @ b c d e .   ",
"  . f g h i j     j k l m n .   ",
"  . o p q r s     s t u v w .   ",
"  . x y 2 z A     B C D E F G H ",
"  . I J ' ' K     L M M M M M N ",
"  O P Q R S T     U V W X Y Z ` ",
"  O O O O O .     . O  ... .O   ",
"                      +.@.#.    "};
