/* XPM */
static char * database_query_xpm[] = {
"16 16 154 2",
"  	c None",
". 	c #9EAAB0",
"+ 	c #9CA9AE",
"@ 	c #9CA8AE",
"# 	c #9FABB1",
"$ 	c #A4B0B6",
"% 	c #C4CFD6",
"& 	c #D5DEE6",
"* 	c #DDE7EF",
"= 	c #DCE6EE",
"- 	c #9DA9AF",
"; 	c #CED8E1",
"> 	c #CED7E1",
", 	c #CCD6DF",
"' 	c #CBD5DF",
") 	c #EFF5FB",
"! 	c #DEE7EE",
"~ 	c #CED8E0",
"{ 	c #CCD5DD",
"] 	c #CBD4DD",
"^ 	c #CED7E0",
"/ 	c #DEE6ED",
"( 	c #EFF6FB",
"_ 	c #9DAAAF",
": 	c #B7C1C8",
"< 	c #DBE3E8",
"[ 	c #E8F0F5",
"} 	c #F2F8FD",
"| 	c #F1F8FC",
"1 	c #F0F7FB",
"2 	c #F1F7FC",
"3 	c #EAF0F7",
"4 	c #DCE3EC",
"5 	c #BBC3CD",
"6 	c #9EAAB2",
"7 	c #9EABB0",
"8 	c #B6C0C7",
"9 	c #BBC4CC",
"0 	c #C1C9D3",
"a 	c #C7D0DA",
"b 	c #CFD7E1",
"c 	c #DAE1EB",
"d 	c #D1D9E4",
"e 	c #CAD2DD",
"f 	c #C5CDDB",
"g 	c #C4CADD",
"h 	c #BFC4DB",
"i 	c #A4ADC1",
"j 	c #B9C2C9",
"k 	c #BFC7CF",
"l 	c #C4CCD5",
"m 	c #CAD3DC",
"n 	c #D2D9E4",
"o 	c #D9E0EC",
"p 	c #D5DDE8",
"q 	c #CFD6E4",
"r 	c #CED3E9",
"s 	c #358100",
"t 	c #79A500",
"u 	c #669541",
"v 	c #8E999E",
"w 	c #8F9AA3",
"x 	c #A7B2BA",
"y 	c #B8C1CA",
"z 	c #CCD5DF",
"A 	c #D6DCEA",
"B 	c #E1E4F9",
"C 	c #DFE2FA",
"D 	c #D9DBF7",
"E 	c #CAC9EE",
"F 	c #3A8300",
"G 	c #D5E273",
"H 	c #7CA900",
"I 	c #448900",
"J 	c #939EA4",
"K 	c #EDF3F9",
"L 	c #C9D1D8",
"M 	c #B0B8C2",
"N 	c #AFB7C1",
"O 	c #B9BED2",
"P 	c #629232",
"Q 	c #368000",
"R 	c #378000",
"S 	c #398200",
"T 	c #388000",
"U 	c #D5E481",
"V 	c #C4DA59",
"W 	c #7FAD00",
"X 	c #478900",
"Y 	c #B9C3CA",
"Z 	c #DDE5EA",
"` 	c #EBF3F7",
" .	c #F6FCFF",
"..	c #FEFFFF",
"+.	c #357F00",
"@.	c #DFED90",
"#.	c #D2E74B",
"$.	c #D2E74E",
"%.	c #D1E64D",
"&.	c #D8E893",
"*.	c #97C300",
"=.	c #C7E060",
"-.	c #81B200",
";.	c #498B00",
">.	c #BBC4CD",
",.	c #C2CAD3",
"'.	c #CAD2DE",
").	c #DCDFF9",
"!.	c #367F00",
"~.	c #CDE76B",
"{.	c #99C800",
"].	c #97C700",
"^.	c #98C800",
"/.	c #9ACA00",
"(.	c #CDE663",
"_.	c #478A00",
":.	c #B6C1C8",
"<.	c #C5CCD6",
"[.	c #CCD5E0",
"}.	c #DDE0F9",
"|.	c #BEE63B",
"1.	c #9FD600",
"2.	c #9FD500",
"3.	c #9CD000",
"4.	c #9FD300",
"5.	c #81B900",
"6.	c #437E00",
"7.	c #8E989E",
"8.	c #A2AEB4",
"9.	c #B3BEC5",
"0.	c #C2CAD4",
"a.	c #D0D8E3",
"b.	c #DEE2F6",
"c.	c #7CAB4C",
"d.	c #3C8400",
"e.	c #3E8500",
"f.	c #408500",
"g.	c #3F8200",
"h.	c #A1D800",
"i.	c #A0D800",
"j.	c #80BC00",
"k.	c #417C00",
"l.	c #95A0A6",
"m.	c #9DAAB0",
"n.	c #9FAAB3",
"o.	c #A3ADBC",
"p.	c #A7AFC3",
"q.	c #A9AFC8",
"r.	c #AEB0D4",
"s.	c #418600",
"t.	c #A5E400",
"u.	c #80BE00",
"v.	c #428700",
"w.	c #83C500",
"    . + @ @ @ @ @ + .           ",
"# $ % & * = = = * & % $ #       ",
"- ; > , ' ' ' ' ' , > ; -       ",
"@ ) ! ~ { ] ] ] { ^ / ( @       ",
"_ : < [ } | 1 2 } 3 4 5 6       ",
"7 8 9 0 a b c d e f g h i       ",
"# j k l m n o p q r s t u       ",
"v w x y z A B C D E F G H I     ",
"J K L M N O P Q R S T U V W X   ",
". Y Z `  ...+.@.#.$.%.&.*.=.-.;.",
"7 8 >.,.'.).!.~.{.{.{.].^./.(._.",
"# :.k <.[.}.R |.1.1.2.3.3.4.5.6.",
"7.8.9.0.a.b.c.d.e.f.g.h.i.j.k.  ",
"    l.. m.n.o.p.q.r.s.t.u.k.    ",
"                    v.w.k.      ",
"                                "};
