/* XPM */
static char * database_save_xpm[] = {
"16 16 163 2",
"  	c None",
". 	c #9EAAB0",
"+ 	c #9CA9AE",
"@ 	c #9CA8AE",
"# 	c #9FABB1",
"$ 	c #A4B0B6",
"% 	c #C4CFD6",
"& 	c #D5DEE6",
"* 	c #DDE7EF",
"= 	c #DCE6EE",
"- 	c #9DA9AF",
"; 	c #CED8E1",
"> 	c #CED7E1",
", 	c #CCD6DF",
"' 	c #CBD5DF",
") 	c #9EAAAF",
"! 	c #EFF5FB",
"~ 	c #DEE7EE",
"{ 	c #CED8E0",
"] 	c #CCD5DD",
"^ 	c #CDD5DD",
"/ 	c #CED5DD",
"( 	c #CED6DD",
"_ 	c #D1D9E0",
": 	c #E0E8EE",
"< 	c #F2F7FB",
"[ 	c #A3AAAE",
"} 	c #9DAAAF",
"| 	c #B7C1C8",
"1 	c #DBE3E8",
"2 	c #E8F0F5",
"3 	c #F3F9FD",
"4 	c #F4F9FD",
"5 	c #FBFCFE",
"6 	c #FFFEFF",
"7 	c #FFFFFF",
"8 	c #F8F6F8",
"9 	c #E8E7EB",
"0 	c #C7C7C9",
"a 	c #AFAEAE",
"b 	c #9EABB0",
"c 	c #B6C0C7",
"d 	c #BBC4CC",
"e 	c #C1C9D3",
"f 	c #C9D1DA",
"g 	c #D9DCE4",
"h 	c #55A1C9",
"i 	c #0074B0",
"j 	c #0073B0",
"k 	c #0072B0",
"l 	c #0073B1",
"m 	c #0075B3",
"n 	c #0079B5",
"o 	c #0A7DB6",
"p 	c #1381B7",
"q 	c #1B85B9",
"r 	c #B9C2C9",
"s 	c #BFC7CF",
"t 	c #C4CCD5",
"u 	c #E1E0E7",
"v 	c #0076B1",
"w 	c #C7E8FD",
"x 	c #C1E4FB",
"y 	c #C4E6FC",
"z 	c #CEECFF",
"A 	c #1481B7",
"B 	c #8E999E",
"C 	c #8F9AA3",
"D 	c #A7B2BA",
"E 	c #B8C1CA",
"F 	c #CFD6DE",
"G 	c #E3E2E8",
"H 	c #0077B2",
"I 	c #CEE9FA",
"J 	c #0288DA",
"K 	c #ECEEF0",
"L 	c #A7ADB2",
"M 	c #D1EAFB",
"N 	c #127FB6",
"O 	c #939EA4",
"P 	c #EDF3F9",
"Q 	c #C9D1D8",
"R 	c #B0B8C2",
"S 	c #B0B7C0",
"T 	c #C2C1C7",
"U 	c #B9E0F8",
"V 	c #1994DD",
"W 	c #E9E9EE",
"X 	c #DEE6EF",
"Y 	c #BCE2F8",
"Z 	c #1280B6",
"` 	c #B9C3CA",
" .	c #DDE5EA",
"..	c #EBF3F7",
"+.	c #F7FCFF",
"@.	c #0077B1",
"#.	c #A9D7F5",
"$.	c #2F9EE1",
"%.	c #A1CAE7",
"&.	c #E0E2EB",
"*.	c #ADD9F6",
"=.	c #1480B6",
"-.	c #BBC4CD",
";.	c #C2CAD3",
">.	c #CBD2DB",
",.	c #E1E0E6",
"'.	c #0177B1",
").	c #9BD3F4",
"!.	c #41A6E4",
"~.	c #3AA4E3",
"{.	c #33A1E3",
"].	c #32A1E2",
"^.	c #41A6E3",
"/.	c #9ED4F4",
"(.	c #1481B6",
"_.	c #B6C1C8",
":.	c #C5CCD6",
"<.	c #E3E1E8",
"[.	c #0378B2",
"}.	c #90CDF2",
"|.	c #4FADE6",
"1.	c #A9CFEA",
"2.	c #FFFFFD",
"3.	c #A7CEE8",
"4.	c #4EADE6",
"5.	c #93CEF3",
"6.	c #1581B6",
"7.	c #8E989E",
"8.	c #A2AEB4",
"9.	c #B3BEC5",
"0.	c #C2CAD4",
"a.	c #D1D8E1",
"b.	c #E7E4EB",
"c.	c #047AB3",
"d.	c #88CBF3",
"e.	c #5CB6EB",
"f.	c #EDEDF2",
"g.	c #78797F",
"h.	c #E2E9F1",
"i.	c #5BB5EA",
"j.	c #8BCCF3",
"k.	c #1681B6",
"l.	c #95A0A6",
"m.	c #9FAAAF",
"n.	c #AAADAE",
"o.	c #097DB7",
"p.	c #89CCF6",
"q.	c #75C2F3",
"r.	c #FFFCF9",
"s.	c #918D8B",
"t.	c #F9F9F9",
"u.	c #FCF8F4",
"v.	c #74C1F2",
"w.	c #8BCDF6",
"x.	c #1882B7",
"y.	c #0D75A9",
"z.	c #1682B7",
"A.	c #1080B8",
"B.	c #0F81B9",
"C.	c #0E7FB8",
"D.	c #0F7EB6",
"E.	c #1380B6",
"F.	c #1C83B7",
"    . + @ @ @ @ @ + .           ",
"# $ % & * = = = * & % $ #       ",
"- ; > , ' ' ' ' ' , > ; )       ",
"@ ! ~ { ] ] ^ / ( _ : < [       ",
"} | 1 2 3 4 5 6 7 8 9 0 a       ",
"b c d e f g h i j k l m n o p q ",
"# r s t ^ u v w x 7 7 7 7 y z A ",
"B C D E F G H I J K L L K J M N ",
"O P Q R S T H U V W X X W V Y Z ",
". `  ...+.7 @.#.$.%.&.&.%.$.*.=.",
"b c -.;.>.,.'.).!.~.{.].~.^./.(.",
"# _.s :.^ <.[.}.|.1.7 2.3.4.5.6.",
"7.8.9.0.a.b.c.d.e.f.g.h.W i.j.k.",
"    l.. m.n.o.p.q.r.s.t.u.v.w.x.",
"            y.z.(.A.B.C.D.E.x.F.",
"                                "};
