/* XPM */
static char * database_refresh_xpm[] = {
"16 16 169 2",
"  	c None",
". 	c #9EAAB0",
"+ 	c #9CA9AE",
"@ 	c #9CA8AE",
"# 	c #9FABB1",
"$ 	c #A4B0B6",
"% 	c #C4CFD6",
"& 	c #D5DEE6",
"* 	c #DDE7EF",
"= 	c #DCE6EE",
"- 	c #D5DFE7",
"; 	c #C6D0DA",
"> 	c #AAB3C2",
", 	c #A7AEC2",
"' 	c #9DA9AF",
") 	c #CED8E1",
"! 	c #CED7E1",
"~ 	c #CCD6DF",
"{ 	c #CBD5DF",
"] 	c #CCD6E0",
"^ 	c #CDD6E1",
"/ 	c #CED7E2",
"( 	c #CFD8E5",
"_ 	c #D5DCF0",
": 	c #78A747",
"< 	c #3D8600",
"[ 	c #EFF5FB",
"} 	c #DEE7EE",
"| 	c #CED8E0",
"1 	c #CCD5DD",
"2 	c #CDD5E0",
"3 	c #D1D8E6",
"4 	c #D6DBEF",
"5 	c #D9DDF4",
"6 	c #DDE0FA",
"7 	c #F0F1FF",
"8 	c #398100",
"9 	c #D6E29C",
"0 	c #428700",
"a 	c #9DAAAF",
"b 	c #B7C1C8",
"c 	c #DBE3E8",
"d 	c #E9F0F5",
"e 	c #F3F9FF",
"f 	c #F8FBFF",
"g 	c #D9E7DB",
"h 	c #69A02F",
"i 	c #398000",
"j 	c #3A8100",
"k 	c #3B8100",
"l 	c #7CAF00",
"m 	c #9FC600",
"n 	c #C5DC86",
"o 	c #448700",
"p 	c #9EABB0",
"q 	c #B6C0C7",
"r 	c #BBC4CC",
"s 	c #C2CAD4",
"t 	c #CCD3E2",
"u 	c #BCCCC3",
"v 	c #498C00",
"w 	c #83BE00",
"x 	c #A4D700",
"y 	c #A5D800",
"z 	c #A0D400",
"A 	c #9CD100",
"B 	c #9ED300",
"C 	c #B7DB61",
"D 	c #4A8C00",
"E 	c #B9C2C9",
"F 	c #BFC7CF",
"G 	c #C6CDD8",
"H 	c #D2D8EC",
"I 	c #77A44B",
"J 	c #7EBD00",
"K 	c #78B800",
"L 	c #589A00",
"M 	c #589B00",
"N 	c #3E8300",
"O 	c #7CBB00",
"P 	c #A0DA00",
"Q 	c #BDE93C",
"R 	c #458700",
"S 	c #8E999E",
"T 	c #8F9AA3",
"U 	c #A7B2BA",
"V 	c #BAC2CE",
"W 	c #D6DBF1",
"X 	c #4B8F00",
"Y 	c #64A700",
"Z 	c #6A9D36",
"` 	c #B2C4B4",
" .	c #A6B8AE",
"..	c #BCBAE5",
"+.	c #3C8200",
"@.	c #B1E612",
"#.	c #448600",
"$.	c #939EA4",
"%.	c #EDF3F9",
"&.	c #C9D1D8",
"*.	c #B2B9C5",
"=.	c #A9B2BA",
"-.	c #337F00",
";.	c #8EAE7D",
">.	c #CBC8F5",
",.	c #3A8400",
"'.	c #68973D",
").	c #DAD9F9",
"!.	c #8BB65E",
"~.	c #4E8E00",
"{.	c #B9C3CA",
"].	c #DDE5EA",
"^.	c #ECF3F8",
"/.	c #F9FDFF",
"(.	c #FFFFFF",
"_.	c #347E00",
":.	c #E6EA97",
"<.	c #398200",
"[.	c #E9EBFF",
"}.	c #A9BAB1",
"|.	c #8EA496",
"1.	c #468A00",
"2.	c #71A100",
"3.	c #539100",
"4.	c #BBC4CD",
"5.	c #DDDFFD",
"6.	c #327C00",
"7.	c #D6E77C",
"8.	c #9DC500",
"9.	c #7CAE00",
"0.	c #589700",
"a.	c #5A9800",
"b.	c #7EB100",
"c.	c #89B600",
"d.	c #458000",
"e.	c #B6C1C8",
"f.	c #C6CDD7",
"g.	c #D1D7E8",
"h.	c #317D00",
"i.	c #ACD24F",
"j.	c #9CD300",
"k.	c #9CD200",
"l.	c #A0D500",
"m.	c #A3D800",
"n.	c #A6DA00",
"o.	c #A8DC00",
"p.	c #8BC200",
"q.	c #509000",
"r.	c #8E989E",
"s.	c #A2AEB4",
"t.	c #B3BEC5",
"u.	c #C2CBD5",
"v.	c #D2D9E8",
"w.	c #E4E5FF",
"x.	c #9BCC35",
"y.	c #A1DC00",
"z.	c #7DBB00",
"A.	c #418600",
"B.	c #468900",
"C.	c #478500",
"D.	c #95A0A6",
"E.	c #9EAAB1",
"F.	c #A1ABB8",
"G.	c #A9AECC",
"H.	c #408600",
"I.	c #8FC713",
"J.	c #A1A4C7",
"K.	c #498B00",
"L.	c #3F7E00",
"    . + @ @ @ @ @ + .           ",
"# $ % & * = = = * - ; > ,       ",
"' ) ! ~ { { ] ^ / ( _ : <       ",
"@ [ } | 1 2 3 4 5 6 7 8 9 0     ",
"a b c d e f g h i j k l m n o   ",
"p q r s t u v w x y x z A B C D ",
"# E F G H I J K L M N O P Q R   ",
"S T U V W X Y Z `  ...+.@.#.    ",
"$.%.&.*.=.-.;.>.,.'.).!.0     ~.",
". {.].^./.(.(._.:.<.[.}.|.1.2.3.",
"p q 4.s t 5.6.7.8.9.+.0.a.b.c.d.",
"# e.F f.g.h.i.j.k.l.m.n.o.p.q.  ",
"r.s.t.u.v.w.8 x.y.z.M A.B.C.    ",
"    D.. E.F.G.H.I.A.J.          ",
"                K.L.            ",
"                                "};
