/* XPM */
static char * delete_xpm[] = {
"16 16 72 1",
" 	c None",
".	c #C13B2A",
"+	c #C03828",
"@	c #BF3727",
"#	c #DC776A",
"$	c #F2A99E",
"%	c #F8BAAF",
"&	c #F8BBAF",
"*	c #C33F2F",
"=	c #EFA397",
"-	c #F7AC9E",
";	c #ED7560",
">	c #E9573E",
",	c #E54124",
"'	c #F0A79A",
")	c #F3907F",
"!	c #E94C32",
"~	c #E7492D",
"{	c #E84C30",
"]	c #E84C31",
"^	c #C13B2B",
"/	c #DD7C6F",
"(	c #F59484",
"_	c #E94A2E",
":	c #E94D33",
"<	c #EA4F35",
"[	c #EA5036",
"}	c #BF3929",
"|	c #F4ACA1",
"1	c #ED5238",
"2	c #EC482D",
"3	c #EB462B",
"4	c #EB462A",
"5	c #BF392A",
"6	c #F89686",
"7	c #EE4B2F",
"8	c #FFFFFF",
"9	c #BF3B2B",
"0	c #F77863",
"a	c #F04D33",
"b	c #BF3C2C",
"c	c #F86953",
"d	c #F3563E",
"e	c #BE3D2D",
"f	c #F4644E",
"g	c #F7634C",
"h	c #F45A42",
"i	c #F4563E",
"j	c #F4553D",
"k	c #AA3729",
"l	c #DE5642",
"m	c #FB6D57",
"n	c #F76852",
"o	c #F76752",
"p	c #F46956",
"q	c #FC715D",
"r	c #FA6F5B",
"s	c #F96E5A",
"t	c #C23F2F",
"u	c #F66D59",
"v	c #FF7662",
"w	c #FE7460",
"x	c #FE735F",
"y	c #FD735F",
"z	c #BE3B2B",
"A	c #E25B4A",
"B	c #FC7561",
"C	c #FF7D69",
"D	c #FF7C69",
"E	c #AA3628",
"F	c #BE3B2C",
"G	c #BE3A2B",
"    .+@@@+.     ",
"   @#$%&%$#@    ",
"  *=-;>,>;-=*   ",
" @')!~{]{~!)'@  ",
"^/(_:<[[[<:_(/^ ",
"}|12344444321|} ",
"567888888888765 ",
"90a888888888a09 ",
"bcd888888888dcb ",
"efghijjjjjihgfe ",
"klmcnoooooncmlk ",
" bpqrsssssrqpb  ",
"  tuvwxyxwvut   ",
"   zABCDCBAz    ",
"    EFzGzFE     ",
"                "};
