/* XPM */
static char * node_insert_child_xpm[] = {
"16 16 18 1",
" 	c None",
".	c #00A815",
"+	c #CACACA",
"@	c #FDFDFD",
"#	c #009F13",
"$	c #36CC48",
"%	c #61ED72",
"&	c #F2F2F2",
"*	c #00920F",
"=	c #45E756",
"-	c #9F9F9F",
";	c #E4E4E4",
">	c #00840C",
",	c #15B824",
"'	c #23E134",
")	c #006405",
"!	c #006705",
"~	c #006305",
"                ",
"                ",
"                ",
"                ",
"                ",
"         ...    ",
" +@+    #$%$#  #",
" &&&    *===* **",
" -;-    >,',>  >",
"         )!~    ",
"                ",
"                ",
"                ",
"                ",
"                ",
"                "};
